<svg width="16" height="17" viewBox="0 0 16 17" fill="none" xmlns="http://www.w3.org/2000/svg">
<g clip-path="url(#clip0_0_674)">
<path d="M16 8.5C16 12.9183 12.4183 16.5 8 16.5C3.58175 16.5 0 12.9183 0 8.5C0 8.50187 8 0.500906 8 0.5C12.4183 0.5 16 4.08175 16 8.5Z" fill="#0052B4"/>
<path d="M7.97852 8.50026H7.99996C7.99996 8.493 7.99996 8.48605 7.99996 8.47882C7.99283 8.48599 7.98569 8.49313 7.97852 8.50026Z" fill="#F0F0F0"/>
<path d="M8 4.67442C8 3.26677 8 2.34436 8 0.500519H7.99865C3.581 0.501238 0 4.08264 0 8.50049H4.1739V6.15011L6.52428 8.50049H7.97862C7.98578 8.49336 7.9929 8.48624 8.00003 8.47908C8.00003 7.94011 8.00003 7.45921 8.00003 7.02483L5.64962 4.67442H8Z" fill="#F0F0F0"/>
<path d="M4.04684 1.54382C2.79563 2.25629 1.75544 3.29648 1.04297 4.5477V8.50036H3.12994V3.63082V3.63079H7.9995C7.9995 2.97257 7.9995 2.34551 7.9995 1.54382H4.04684Z" fill="#D80027"/>
<path d="M7.99989 7.51661L5.15761 4.67436H4.17383C4.17383 4.67433 4.17383 4.67436 4.17383 4.67436L7.99985 8.50039H7.99989C7.99989 8.50039 7.99989 7.82211 7.99989 7.51661Z" fill="#D80027"/>
<path d="M4.82486 9.89096L5.26392 10.809L6.25539 10.5799L5.81139 11.4956L6.6087 12.1278L5.61598 12.3516L5.61877 13.3692L4.82486 12.7326L4.03098 13.3692L4.03377 12.3516L3.04102 12.1278L3.83836 11.4956L3.3943 10.5799L4.38583 10.809L4.82486 9.89096Z" fill="#F0F0F0"/>
<path d="M11.9778 11.6302L12.1974 12.0893L12.6931 11.9747L12.4711 12.4325L12.8698 12.7487L12.3734 12.8606L12.3748 13.3694L11.9778 13.051L11.5809 13.3694L11.5823 12.8606L11.0859 12.7487L11.4846 12.4325L11.2626 11.9747L11.7583 12.0893L11.9778 11.6302Z" fill="#F0F0F0"/>
<path d="M9.93588 6.76096L10.1554 7.22002L10.6511 7.10539L10.4291 7.56324L10.8278 7.87939L10.3314 7.99127L10.3328 8.50008L9.93588 8.18174L9.53894 8.50008L9.54029 7.99127L9.04395 7.87939L9.4426 7.56324L9.2206 7.10539L9.71635 7.22002L9.93588 6.76096Z" fill="#F0F0F0"/>
<path d="M11.9778 3.97842L12.1974 4.43749L12.6931 4.32289L12.4711 4.78074L12.8697 5.09686L12.3734 5.20877L12.3748 5.71758L11.9778 5.39924L11.5809 5.71758L11.5823 5.20877L11.0859 5.09686L11.4846 4.78074L11.2626 4.32289L11.7583 4.43749L11.9778 3.97842Z" fill="#F0F0F0"/>
<path d="M13.7611 6.06519L13.9806 6.52425L14.4763 6.40962L14.2543 6.86747L14.653 7.18362L14.1566 7.29553L14.158 7.80431L13.7611 7.486L13.3641 7.80431L13.3655 7.29553L12.8691 7.18362L13.2678 6.86747L13.0458 6.40962L13.5415 6.52425L13.7611 6.06519Z" fill="#F0F0F0"/>
<path d="M12.4864 8.50021L12.659 9.03165H13.2178L12.7657 9.36012L12.9384 9.89153L12.4864 9.56309L12.0343 9.89153L12.2069 9.36012L11.7549 9.03165H12.3137L12.4864 8.50021Z" fill="#F0F0F0"/>
</g>
<defs>
<clipPath id="clip0_0_674">
<rect width="16" height="16" fill="white" transform="translate(0 0.5)"/>
</clipPath>
</defs>
</svg>
