<svg width="16" height="16" viewBox="0 0 16 16" fill="none" xmlns="http://www.w3.org/2000/svg">
<g clip-path="url(#clip0_0_709)">
<path d="M5.66634 9.77777C5.66634 10.6369 6.36279 11.3333 7.2219 11.3333H8.66634C9.58682 11.3333 10.333 10.5871 10.333 9.66666C10.333 8.74619 9.58682 8 8.66634 8H7.33301C6.41253 8 5.66634 7.2538 5.66634 6.33333C5.66634 5.41285 6.41253 4.66666 7.33301 4.66666H8.77745C9.63656 4.66666 10.333 5.36311 10.333 6.22222M7.99967 3.66666V4.66666M7.99967 11.3333V12.3333M14.6663 8C14.6663 11.6819 11.6816 14.6667 7.99967 14.6667C4.31778 14.6667 1.33301 11.6819 1.33301 8C1.33301 4.3181 4.31778 1.33333 7.99967 1.33333C11.6816 1.33333 14.6663 4.3181 14.6663 8Z" stroke="#7B8EC8" stroke-linecap="round" stroke-linejoin="round"/>
</g>
<defs>
<clipPath id="clip0_0_709">
<rect width="16" height="16" fill="white"/>
</clipPath>
</defs>
</svg>
