<svg width="12" height="12" viewBox="0 0 12 12" fill="none" xmlns="http://www.w3.org/2000/svg">
<path d="M7.67578 1.99736C7.57031 2.03721 7.5 2.13799 7.5 2.25049C7.5 2.36299 7.57031 2.46377 7.67578 2.50361L9 3.00049L9.49688 4.32471C9.53672 4.43018 9.6375 4.50049 9.75 4.50049C9.8625 4.50049 9.96328 4.43018 10.0031 4.32471L10.5 3.00049L11.8242 2.50361C11.9297 2.46377 12 2.36299 12 2.25049C12 2.13799 11.9297 2.03721 11.8242 1.99736L10.5 1.50049L10.0031 0.17627C9.96328 0.0708008 9.8625 0.000488281 9.75 0.000488281C9.6375 0.000488281 9.53672 0.0708008 9.49688 0.17627L9 1.50049L7.67578 1.99736ZM4.80703 1.71846C4.74609 1.58486 4.6125 1.50049 4.46719 1.50049C4.32188 1.50049 4.18828 1.58486 4.12734 1.71846L2.88984 4.39033L0.217969 5.62549C0.084375 5.68643 0 5.82002 0 5.96768C0 6.11533 0.084375 6.24658 0.217969 6.30752L2.89219 7.54268L4.125 10.2146C4.18594 10.3481 4.31953 10.4325 4.46484 10.4325C4.61016 10.4325 4.74375 10.3481 4.80469 10.2146L6.03984 7.54033L8.71406 6.30518C8.84766 6.24424 8.93203 6.11064 8.93203 5.96533C8.93203 5.82002 8.84766 5.68643 8.71406 5.62549L6.04219 4.39268L4.80703 1.71846ZM9 9.00049L7.67578 9.49736C7.57031 9.53721 7.5 9.63799 7.5 9.75049C7.5 9.86299 7.57031 9.96377 7.67578 10.0036L9 10.5005L9.49688 11.8247C9.53672 11.9302 9.6375 12.0005 9.75 12.0005C9.8625 12.0005 9.96328 11.9302 10.0031 11.8247L10.5 10.5005L11.8242 10.0036C11.9297 9.96377 12 9.86299 12 9.75049C12 9.63799 11.9297 9.53721 11.8242 9.49736L10.5 9.00049L10.0031 7.67627C9.96328 7.5708 9.8625 7.50049 9.75 7.50049C9.6375 7.50049 9.53672 7.5708 9.49688 7.67627L9 9.00049Z" fill="url(#paint0_linear_289_2328)"/>
<defs>
<linearGradient id="paint0_linear_289_2328" x1="-1.76879" y1="0.000491006" x2="12.571" y2="0.80725" gradientUnits="userSpaceOnUse">
<stop stop-color="#FF7000"/>
<stop offset="0.9999" stop-color="#E2985E"/>
<stop offset="1" stop-color="#E2995F"/>
</linearGradient>
</defs>
</svg>
