<svg width="13" height="13" viewBox="0 0 13 13" fill="none" xmlns="http://www.w3.org/2000/svg">
<g clip-path="url(#clip0_280_1982)">
<mask id="mask0_280_1982" style="mask-type:luminance" maskUnits="userSpaceOnUse" x="0" y="0" width="13" height="13">
<path d="M0 0.0161133H12.984V13.0001H0V0.0161133Z" fill="white"/>
</mask>
<g mask="url(#mask0_280_1982)">
<path d="M12.7392 5.92994L7.07009 0.261232C6.99243 0.183523 6.90022 0.121878 6.79873 0.0798195C6.69724 0.037761 6.58845 0.0161133 6.47859 0.0161133C6.36873 0.0161133 6.25994 0.037761 6.15845 0.0798195C6.05696 0.121878 5.96475 0.183523 5.88709 0.261232L4.71031 1.43858L6.20333 2.9316C6.37886 2.87199 6.56757 2.86268 6.74811 2.90473C6.92866 2.94679 7.09383 3.03852 7.22496 3.16956C7.35681 3.30155 7.44886 3.46798 7.49056 3.64982C7.53227 3.83166 7.52195 4.02157 7.4608 4.19783L8.90026 5.63687C9.07656 5.57564 9.26655 5.56533 9.44845 5.60711C9.63034 5.6489 9.79678 5.7411 9.92868 5.87313C10.0211 5.96551 10.0944 6.07518 10.1444 6.19589C10.1944 6.31659 10.2201 6.44597 10.2201 6.57662C10.2201 6.70727 10.1944 6.83664 10.1444 6.95735C10.0944 7.07805 10.0211 7.18773 9.92868 7.2801C9.74188 7.4667 9.48866 7.57151 9.22463 7.57151C8.9606 7.57151 8.70737 7.4667 8.52058 7.2801C8.38182 7.14111 8.28728 6.96418 8.24885 6.77157C8.21043 6.57897 8.22985 6.3793 8.30467 6.19771L6.96227 4.85574V8.38793C7.10396 8.45792 7.22694 8.56066 7.32101 8.68764C7.41509 8.81462 7.47756 8.96219 7.50325 9.11812C7.52893 9.27405 7.5171 9.43386 7.46873 9.5843C7.42037 9.73475 7.33685 9.87151 7.2251 9.98326C7.13272 10.0756 7.02305 10.1489 6.90235 10.1989C6.78164 10.2489 6.65227 10.2747 6.52162 10.2747C6.39096 10.2747 6.26159 10.2489 6.14089 10.1989C6.02018 10.1489 5.91051 10.0756 5.81813 9.98326C5.72572 9.89088 5.65241 9.78119 5.60239 9.66048C5.55237 9.53976 5.52663 9.41037 5.52663 9.2797C5.52663 9.14903 5.55237 9.01964 5.60239 8.89892C5.65241 8.77821 5.72572 8.66852 5.81813 8.57615C5.91123 8.48286 6.02188 8.40895 6.1437 8.35868V4.79399C6.02238 4.74402 5.91212 4.67057 5.81927 4.57786C5.72642 4.48515 5.6528 4.37501 5.60265 4.25377C5.55249 4.13252 5.52678 4.00256 5.527 3.87135C5.52722 3.74014 5.55336 3.61027 5.60392 3.48919L4.13181 2.0168L0.244242 5.90337C0.0875859 6.06034 -0.000396729 6.27304 -0.000396729 6.4948C-0.000396729 6.71657 0.0875859 6.92927 0.244242 7.08623L5.91365 12.7556C6.07061 12.9123 6.28329 13.0002 6.50501 13.0002C6.72674 13.0002 6.93941 12.9123 7.09637 12.7556L12.7392 7.1128C12.8959 6.95583 12.9839 6.74313 12.9839 6.52137C12.9839 6.29961 12.8959 6.0869 12.7392 5.92994Z" fill="#F03C2E"/>
</g>
</g>
<defs>
<clipPath id="clip0_280_1982">
<rect width="13" height="13" fill="white"/>
</clipPath>
</defs>
</svg>
