<svg width="18" height="19" viewBox="0 0 18 19" fill="none" xmlns="http://www.w3.org/2000/svg">
<path d="M7.39111 10.3047C7.73662 10.7666 8.17743 11.1488 8.68364 11.4254C9.18984 11.7019 9.74961 11.8664 10.325 11.9076C10.9003 11.9488 11.4778 11.8658 12.0183 11.6642C12.5587 11.4626 13.0495 11.1471 13.4573 10.7392L15.8709 8.32556C16.6037 7.56688 17.0091 6.55074 17 5.49601C16.9908 4.44128 16.5677 3.43235 15.8219 2.68651C15.0761 1.94068 14.0671 1.51762 13.0124 1.50845C11.9577 1.49929 10.9415 1.90475 10.1828 2.63751L8.79905 4.01326" stroke="#7B8EC8" stroke-width="1.2" stroke-linecap="round" stroke-linejoin="round"/>
<path d="M10.6092 8.6957C10.2637 8.23379 9.82292 7.85159 9.31671 7.57503C8.81051 7.29847 8.25074 7.134 7.67538 7.0928C7.10003 7.05159 6.52254 7.13461 5.98209 7.33621C5.44163 7.53781 4.95086 7.85329 4.54305 8.26125L2.12945 10.6748C1.39669 11.4335 0.991231 12.4497 1.0004 13.5044C1.00956 14.5591 1.43262 15.5681 2.17846 16.3139C2.92429 17.0597 3.93323 17.4828 4.98796 17.492C6.04269 17.5011 7.05882 17.0957 7.8175 16.3629L9.19326 14.9871" stroke="#7B8EC8" stroke-width="1.2" stroke-linecap="round" stroke-linejoin="round"/>
</svg>
