<svg width="32" height="32" viewBox="0 0 32 32" fill="none" xmlns="http://www.w3.org/2000/svg">
<path d="M14.2383 0.337402C12.736 2.49357 14.2281 8.19416 14.5548 10.779L15.8204 10.4626C15.4684 7.67733 15.798 2.62035 14.2383 0.337402Z" fill="#FF7000"/>
<path d="M18.3521 0.653809L16.1372 10.4626L17.4029 10.779L19.3013 0.970221L18.3521 0.653809Z" fill="#FF7000"/>
<path d="M9.17568 1.91944L12.6562 11.0954L6.64437 3.81792L5.37872 4.13433L11.3906 12.3611L2.84742 6.98205L2.53101 8.2477L11.0742 13.6267L12.6562 11.0954L14.2383 10.779L10.4413 1.60303L9.17568 1.91944Z" fill="#FF7000"/>
<path d="M22.4654 1.91943L17.7192 11.0954C19.9267 11.4295 23.9614 3.6274 22.4654 1.91943Z" fill="#FF7000"/>
<path d="M19.3015 12.3608C22.1479 11.7607 25.5816 7.3976 27.2118 5.08326C24.5568 4.86082 19.9835 9.93089 19.3015 12.3608Z" fill="#FF7000"/>
<path d="M0.94947 11.0952L0.633057 12.0445C3.30909 13.4489 7.41957 14.7541 10.4419 14.8922C9.62273 12.5366 3.24182 11.5696 0.94947 11.0952Z" fill="#FF7000"/>
<path d="M0 15.5254V16.791H10.1252V15.5254H0Z" fill="#FF7000"/>
<path d="M21.1995 16.7908L31.3247 16.4744V15.8416C29.3158 15.2478 21.9551 14.5143 21.1995 16.7908Z" fill="#FF7000"/>
<path d="M20.8835 17.4238C21.7048 19.7839 28.0863 20.747 30.3759 21.2208L30.6923 20.9044V20.2715C27.999 18.858 23.9251 17.5564 20.8835 17.4238Z" fill="#FF7000"/>
<path d="M20.5667 18.6895L19.9338 19.9551L28.477 25.3341L28.7934 24.0685L20.5667 18.6895Z" fill="#FF7000"/>
<path d="M4.42969 27.2325L4.7461 27.5489L12.34 20.9042C10.3012 19.0307 5.27948 25.4102 4.42969 27.2325Z" fill="#FF7000"/>
<path d="M20.8835 30.7127H22.1491L18.6686 20.9039H18.985C20.2827 23.4187 23.0506 27.2698 25.6297 28.4978L25.9461 28.1814C24.9227 25.8852 22.4581 22.595 20.4755 21.0182C19.6302 20.3458 18.0294 20.4976 17.6271 21.6603C16.9126 23.7249 20.2991 28.5772 20.8835 30.7127Z" fill="#FF7000"/>
<path d="M12.3398 20.9043C11.4555 23.0282 7.12779 28.5286 8.85923 30.3967L13.6054 21.2207L12.3398 20.9043Z" fill="#FF7000"/>
<path d="M13.9222 21.5371L12.3401 31.6623C15.2466 30.8121 13.6355 24.0902 15.8206 22.1699C15.8206 24.195 15.5276 31.0213 17.7191 31.6623C17.7177 29.6256 18.1307 23.6525 16.7611 22.1155C16.206 21.4925 14.6923 21.6208 13.9222 21.5371Z" fill="#FF7000"/>
</svg>
