<svg width="1000" height="875" viewBox="0 0 1252 875" fill="none" xmlns="http://www.w3.org/2000/svg">
<g opacity="0.2">
<path d="M1016.52 0H267.079C232.586 0 204.625 27.9614 204.625 62.4535V811.896C204.625 846.388 232.586 874.349 267.079 874.349H1016.52C1051.01 874.349 1078.97 846.388 1078.97 811.896V62.4535C1078.97 27.9614 1051.01 0 1016.52 0Z" fill="#0F1117"/>
<g filter="url(#filter0_d_280_2379)">
<path d="M911.746 61.2046H69.2052C51.9711 61.2046 38 75.1853 38 92.4314V248.565C38 265.811 51.9711 279.792 69.2052 279.792H911.746C928.981 279.792 942.952 265.811 942.952 248.565V92.4314C942.952 75.1853 928.981 61.2046 911.746 61.2046Z" fill="#212734"/>
</g>
<path d="M468.633 111.167H306.366C296.025 111.167 287.643 119.556 287.643 129.904C287.643 140.251 296.025 148.64 306.366 148.64H468.633C478.973 148.64 487.356 140.251 487.356 129.904C487.356 119.556 478.973 111.167 468.633 111.167Z" fill="url(#paint0_linear_280_2379)" fill-opacity="0.7"/>
<path d="M580.972 192.357H306.366C296.025 192.357 287.643 200.745 287.643 211.093C287.643 221.441 296.025 229.829 306.366 229.829H580.972C591.312 229.829 599.695 221.441 599.695 211.093C599.695 200.745 591.312 192.357 580.972 192.357Z" fill="#3F4354"/>
<path d="M210.873 81.1895H92.2111C74.9651 81.1895 60.9844 95.1702 60.9844 112.416V231.078C60.9844 248.324 74.9651 262.305 92.2111 262.305H210.873C228.119 262.305 242.1 248.324 242.1 231.078V112.416C242.1 95.1702 228.119 81.1895 210.873 81.1895Z" fill="url(#paint1_linear_280_2379)"/>
<path d="M137.316 192.232H149.807L149.944 187.423C149.944 181.103 153.929 179.454 159.562 177.668C165.213 176.06 170.187 172.657 173.731 167.972C177.276 163.287 179.199 157.575 179.21 151.7C179.333 148.113 178.711 144.539 177.382 141.205C176.053 137.871 174.047 134.849 171.49 132.33C168.933 129.812 165.88 127.852 162.526 126.574C159.172 125.296 155.59 124.729 152.005 124.907C148.217 124.825 144.451 125.512 140.936 126.929C137.422 128.345 134.232 130.461 131.559 133.147C128.887 135.834 126.788 139.035 125.39 142.557C123.992 146.079 123.324 149.848 123.426 153.636H136.342C136.293 151.544 136.661 149.464 137.427 147.517C138.192 145.57 139.338 143.795 140.798 142.297C142.258 140.799 144.002 139.607 145.929 138.791C147.856 137.976 149.925 137.553 152.017 137.548C153.904 137.438 155.792 137.736 157.553 138.422C159.314 139.107 160.907 140.163 162.224 141.519C163.54 142.874 164.55 144.498 165.183 146.278C165.816 148.059 166.059 149.954 165.895 151.837C165.811 154.884 164.752 157.824 162.872 160.223C160.992 162.623 158.391 164.355 155.452 165.165L150.918 166.963C146.479 168.033 142.604 170.731 140.059 174.522C137.514 178.313 136.486 182.922 137.179 187.436L137.316 192.232ZM143.499 221.922C144.722 221.966 145.941 221.764 147.085 221.328C148.229 220.892 149.273 220.231 150.157 219.384C151.041 218.538 151.746 217.523 152.231 216.399C152.715 215.275 152.97 214.065 152.979 212.842C152.968 211.619 152.713 210.411 152.227 209.288C151.742 208.166 151.036 207.152 150.153 206.307C149.269 205.462 148.225 204.802 147.082 204.367C145.939 203.932 144.721 203.73 143.499 203.773C142.277 203.73 141.058 203.932 139.916 204.367C138.773 204.802 137.729 205.462 136.845 206.307C135.961 207.152 135.256 208.166 134.77 209.288C134.285 210.411 134.029 211.619 134.018 212.842C134.028 214.065 134.282 215.275 134.767 216.399C135.252 217.523 135.957 218.538 136.841 219.384C137.724 220.231 138.769 220.892 139.913 221.328C141.056 221.764 142.276 221.966 143.499 221.922Z" fill="#212734"/>
<g filter="url(#filter1_d_280_2379)">
<path d="M1182.79 327.881H340.254C331.977 327.881 324.04 331.171 318.188 337.027C312.336 342.883 309.048 350.826 309.048 359.108V515.241C309.048 523.523 312.336 531.466 318.188 537.322C324.04 543.178 331.977 546.468 340.254 546.468H1182.79C1191.07 546.468 1199.01 543.178 1204.86 537.322C1210.71 531.466 1214 523.523 1214 515.241V359.108C1214 350.826 1210.71 342.883 1204.86 337.027C1199.01 331.171 1191.07 327.881 1182.79 327.881V327.881Z" fill="#212734"/>
</g>
<path d="M783.367 377.843H945.634C955.975 377.843 964.357 386.232 964.357 396.579C964.357 406.927 955.975 415.315 945.634 415.315H783.367C773.027 415.315 764.644 406.927 764.644 396.579C764.644 386.232 773.027 377.843 783.367 377.843Z" fill="url(#paint2_linear_280_2379)" fill-opacity="0.7"/>
<path d="M671.028 459.033H945.634C955.975 459.033 964.357 467.422 964.357 477.769C964.357 488.117 955.975 496.505 945.634 496.505H671.028C660.688 496.505 652.305 488.117 652.305 477.769C652.305 467.422 660.688 459.033 671.028 459.033Z" fill="#3F4354"/>
<path d="M1164.07 346.617H1045.49C1028.26 346.617 1014.29 360.597 1014.29 377.843V496.505C1014.29 513.751 1028.26 527.732 1045.49 527.732H1164.07C1181.31 527.732 1195.28 513.751 1195.28 496.505V377.843C1195.28 360.597 1181.31 346.617 1164.07 346.617Z" fill="url(#paint3_linear_280_2379)"/>
<path d="M1090.56 457.659H1103.05L1103.18 452.85C1103.18 446.53 1107.17 444.881 1112.79 443.095C1118.44 441.488 1123.41 438.084 1126.95 433.399C1130.5 428.714 1132.42 423.002 1132.43 417.127C1132.55 413.54 1131.93 409.966 1130.6 406.632C1129.27 403.298 1127.27 400.276 1124.71 397.758C1122.16 395.239 1119.11 393.279 1115.76 392.001C1112.41 390.723 1108.83 390.156 1105.24 390.334C1101.46 390.252 1097.69 390.94 1094.18 392.356C1090.67 393.772 1087.48 395.888 1084.81 398.574C1082.14 401.261 1080.04 404.462 1078.65 407.984C1077.25 411.506 1076.58 415.275 1076.68 419.063H1089.59C1089.54 416.972 1089.91 414.891 1090.67 412.944C1091.44 410.997 1092.59 409.223 1094.04 407.724C1095.5 406.226 1097.25 405.034 1099.17 404.218C1101.1 403.403 1103.16 402.98 1105.26 402.975C1107.14 402.866 1109.03 403.164 1110.79 403.849C1112.55 404.534 1114.14 405.59 1115.45 406.946C1116.77 408.302 1117.78 409.925 1118.41 411.705C1119.05 413.486 1119.29 415.382 1119.12 417.264C1119.04 420.311 1117.98 423.251 1116.1 425.651C1114.22 428.05 1111.62 429.782 1108.69 430.592L1104.16 432.391C1099.72 433.46 1095.85 436.158 1093.31 439.949C1090.76 443.741 1089.74 448.349 1090.43 452.863L1090.56 457.659ZM1096.74 487.35C1097.97 487.393 1099.18 487.191 1100.33 486.755C1101.47 486.319 1102.51 485.658 1103.4 484.812C1104.28 483.965 1104.98 482.95 1105.47 481.826C1105.95 480.702 1106.21 479.493 1106.22 478.269C1106.21 477.046 1105.95 475.838 1105.47 474.716C1104.98 473.593 1104.27 472.58 1103.39 471.734C1102.51 470.889 1101.47 470.229 1100.32 469.794C1099.18 469.359 1097.96 469.157 1096.74 469.201C1095.52 469.157 1094.3 469.359 1093.16 469.794C1092.02 470.229 1090.98 470.889 1090.09 471.734C1089.21 472.58 1088.51 473.593 1088.02 474.716C1087.54 475.838 1087.28 477.046 1087.27 478.269C1087.28 479.493 1087.53 480.702 1088.02 481.826C1088.5 482.95 1089.21 483.965 1090.09 484.812C1090.97 485.658 1092.02 486.319 1093.16 486.755C1094.3 487.191 1095.52 487.393 1096.74 487.35Z" fill="#212734"/>
<g filter="url(#filter2_d_280_2379)">
<path d="M69.2052 598.929H911.746C920.023 598.929 927.96 602.219 933.812 608.075C939.664 613.931 942.952 621.874 942.952 630.156V786.29C942.952 794.572 939.664 802.514 933.812 808.37C927.96 814.227 920.023 817.517 911.746 817.517H69.2052C60.9291 817.517 52.9919 814.227 47.1398 808.37C41.2877 802.514 38 794.572 38 786.29V630.156C38 621.874 41.2877 613.931 47.1398 608.075C52.9919 602.219 60.9291 598.929 69.2052 598.929V598.929Z" fill="#212734"/>
</g>
<path d="M468.633 648.893H306.366C296.025 648.893 287.643 657.281 287.643 667.629C287.643 677.976 296.025 686.365 306.366 686.365H468.633C478.973 686.365 487.356 677.976 487.356 667.629C487.356 657.281 478.973 648.893 468.633 648.893Z" fill="url(#paint4_linear_280_2379)" fill-opacity="0.7"/>
<path d="M580.972 730.083H306.366C296.025 730.083 287.643 738.471 287.643 748.819C287.643 759.166 296.025 767.555 306.366 767.555H580.972C591.312 767.555 599.695 759.166 599.695 748.819C599.695 738.471 591.312 730.083 580.972 730.083Z" fill="#3F4354"/>
<path d="M206.508 617.665H87.9279C70.6937 617.665 56.7227 631.646 56.7227 648.892V767.554C56.7227 784.8 70.6937 798.78 87.9279 798.78H206.508C223.742 798.78 237.713 784.8 237.713 767.554V648.892C237.713 631.646 223.742 617.665 206.508 617.665Z" fill="url(#paint5_linear_280_2379)"/>
<path d="M133 728.708H145.482L145.619 723.899C145.619 717.578 149.601 715.93 155.23 714.143C160.877 712.536 165.848 709.132 169.39 704.447C172.932 699.762 174.854 694.05 174.865 688.175C174.988 684.588 174.366 681.015 173.038 677.681C171.711 674.346 169.705 671.325 167.15 668.806C164.594 666.288 161.544 664.327 158.193 663.05C154.841 661.772 151.261 661.204 147.679 661.383C143.893 661.3 140.13 661.988 136.618 663.404C133.106 664.821 129.918 666.936 127.247 669.623C124.576 672.309 122.479 675.51 121.082 679.032C119.685 682.554 119.017 686.323 119.12 690.111H132.026C131.977 688.02 132.346 685.94 133.11 683.993C133.875 682.046 135.021 680.271 136.48 678.773C137.938 677.274 139.682 676.082 141.607 675.267C143.532 674.451 145.601 674.029 147.691 674.023C149.576 673.914 151.463 674.212 153.223 674.897C154.983 675.582 156.575 676.639 157.89 677.994C159.206 679.35 160.215 680.973 160.848 682.754C161.481 684.534 161.723 686.43 161.559 688.313C161.476 691.36 160.417 694.299 158.538 696.699C156.659 699.098 154.06 700.83 151.124 701.64L146.593 703.439C142.157 704.508 138.284 707.206 135.741 710.998C133.198 714.789 132.171 719.398 132.862 723.911L133 728.708ZM139.178 758.398C140.401 758.441 141.619 758.239 142.762 757.803C143.905 757.367 144.949 756.707 145.832 755.86C146.715 755.013 147.42 753.998 147.904 752.874C148.389 751.751 148.643 750.541 148.652 749.317C148.641 748.094 148.386 746.886 147.901 745.764C147.415 744.642 146.711 743.628 145.827 742.783C144.944 741.937 143.901 741.278 142.759 740.843C141.617 740.407 140.4 740.206 139.178 740.249C137.957 740.206 136.74 740.407 135.598 740.843C134.456 741.278 133.412 741.937 132.529 742.783C131.646 743.628 130.941 744.642 130.456 745.764C129.971 746.886 129.715 748.094 129.704 749.317C129.714 750.541 129.968 751.751 130.452 752.874C130.937 753.998 131.641 755.013 132.525 755.86C133.408 756.707 134.452 757.367 135.595 757.803C136.737 758.239 137.956 758.441 139.178 758.398Z" fill="#212734"/>
</g>
<defs>
<filter id="filter0_d_280_2379" x="0.527885" y="42.4685" width="979.895" height="293.532" filterUnits="userSpaceOnUse" color-interpolation-filters="sRGB">
<feFlood flood-opacity="0" result="BackgroundImageFix"/>
<feColorMatrix in="SourceAlpha" type="matrix" values="0 0 0 0 0 0 0 0 0 0 0 0 0 0 0 0 0 0 127 0" result="hardAlpha"/>
<feOffset dy="18.7361"/>
<feGaussianBlur stdDeviation="18.7361"/>
<feColorMatrix type="matrix" values="0 0 0 0 0 0 0 0 0 0 0 0 0 0 0 0 0 0 0.161 0"/>
<feBlend mode="normal" in2="BackgroundImageFix" result="effect1_dropShadow_280_2379"/>
<feBlend mode="normal" in="SourceGraphic" in2="effect1_dropShadow_280_2379" result="shape"/>
</filter>
<filter id="filter1_d_280_2379" x="271.577" y="309.145" width="979.895" height="293.532" filterUnits="userSpaceOnUse" color-interpolation-filters="sRGB">
<feFlood flood-opacity="0" result="BackgroundImageFix"/>
<feColorMatrix in="SourceAlpha" type="matrix" values="0 0 0 0 0 0 0 0 0 0 0 0 0 0 0 0 0 0 127 0" result="hardAlpha"/>
<feOffset dy="18.7361"/>
<feGaussianBlur stdDeviation="18.7361"/>
<feColorMatrix type="matrix" values="0 0 0 0 0 0 0 0 0 0 0 0 0 0 0 0 0 0 0.161 0"/>
<feBlend mode="normal" in2="BackgroundImageFix" result="effect1_dropShadow_280_2379"/>
<feBlend mode="normal" in="SourceGraphic" in2="effect1_dropShadow_280_2379" result="shape"/>
</filter>
<filter id="filter2_d_280_2379" x="0.527885" y="580.193" width="979.895" height="293.532" filterUnits="userSpaceOnUse" color-interpolation-filters="sRGB">
<feFlood flood-opacity="0" result="BackgroundImageFix"/>
<feColorMatrix in="SourceAlpha" type="matrix" values="0 0 0 0 0 0 0 0 0 0 0 0 0 0 0 0 0 0 127 0" result="hardAlpha"/>
<feOffset dy="18.7361"/>
<feGaussianBlur stdDeviation="18.7361"/>
<feColorMatrix type="matrix" values="0 0 0 0 0 0 0 0 0 0 0 0 0 0 0 0 0 0 0.161 0"/>
<feBlend mode="normal" in2="BackgroundImageFix" result="effect1_dropShadow_280_2379"/>
<feBlend mode="normal" in="SourceGraphic" in2="effect1_dropShadow_280_2379" result="shape"/>
</filter>
<linearGradient id="paint0_linear_280_2379" x1="467.541" y1="117.605" x2="314.516" y2="159.232" gradientUnits="userSpaceOnUse">
<stop stop-color="#171C23" stop-opacity="0.58"/>
<stop offset="1" stop-color="#13161C"/>
</linearGradient>
<linearGradient id="paint1_linear_280_2379" x1="34.2882" y1="81.1895" x2="250.718" y2="93.3659" gradientUnits="userSpaceOnUse">
<stop stop-color="#FF7000"/>
<stop offset="0.9999" stop-color="#E2985E"/>
<stop offset="1" stop-color="#E2995F"/>
</linearGradient>
<linearGradient id="paint2_linear_280_2379" x1="784.459" y1="384.281" x2="937.484" y2="425.908" gradientUnits="userSpaceOnUse">
<stop stop-color="#171C23" stop-opacity="0.58"/>
<stop offset="1" stop-color="#13161C"/>
</linearGradient>
<linearGradient id="paint3_linear_280_2379" x1="987.609" y1="346.617" x2="1203.89" y2="358.776" gradientUnits="userSpaceOnUse">
<stop stop-color="#FF7000"/>
<stop offset="0.9999" stop-color="#E2985E"/>
<stop offset="1" stop-color="#E2995F"/>
</linearGradient>
<linearGradient id="paint4_linear_280_2379" x1="467.541" y1="655.33" x2="314.516" y2="696.957" gradientUnits="userSpaceOnUse">
<stop stop-color="#171C23" stop-opacity="0.58"/>
<stop offset="1" stop-color="#13161C"/>
</linearGradient>
<linearGradient id="paint5_linear_280_2379" x1="30.0449" y1="617.665" x2="246.326" y2="629.825" gradientUnits="userSpaceOnUse">
<stop stop-color="#FF7000"/>
<stop offset="0.9999" stop-color="#E2985E"/>
<stop offset="1" stop-color="#E2995F"/>
</linearGradient>
</defs>
</svg>
