<svg width="187" height="36" viewBox="0 0 187 36" fill="none" xmlns="http://www.w3.org/2000/svg">
<path d="M14.2388 2.33765C12.7364 4.49381 14.2286 10.1944 14.5552 12.7793L15.8209 12.4629C15.4689 9.67757 15.7985 4.6206 14.2388 2.33765Z" fill="#FF7000"/>
<path d="M18.3526 2.6543L16.1377 12.4631L17.4033 12.7795L19.3018 2.97071L18.3526 2.6543Z" fill="#FF7000"/>
<path d="M9.17592 3.91968L12.6565 13.0957L6.64462 5.81816L5.37897 6.13457L11.3908 14.3613L2.84766 8.98229L2.53125 10.2479L11.0744 15.627L12.6565 13.0957L14.2385 12.7792L10.4416 3.60327L9.17592 3.91968Z" fill="#FF7000"/>
<path d="M22.4659 3.91968L17.7197 13.0957C19.9271 13.4297 23.9619 5.62764 22.4659 3.91968Z" fill="#FF7000"/>
<path d="M19.3018 14.3612C22.1481 13.7612 25.5818 9.39809 27.2121 7.08375C24.557 6.86131 19.9838 11.9314 19.3018 14.3612Z" fill="#FF7000"/>
<path d="M0.949225 13.0957L0.632812 14.0449C3.30884 15.4494 7.41933 16.7545 10.4416 16.8927C9.62248 14.5371 3.24157 13.5701 0.949225 13.0957Z" fill="#FF7000"/>
<path d="M0 17.5256V18.7913H10.1252V17.5256H0Z" fill="#FF7000"/>
<path d="M21.1992 18.7911L31.3244 18.4747V17.8418C29.3155 17.248 21.9548 16.5145 21.1992 18.7911Z" fill="#FF7000"/>
<path d="M20.8838 19.4241C21.705 21.7842 28.0866 22.7472 30.3762 23.221L30.6926 22.9046V22.2718C27.9993 20.8582 23.9254 19.5567 20.8838 19.4241Z" fill="#FF7000"/>
<path d="M20.5664 20.6895L19.9336 21.9551L28.4767 27.3341L28.7932 26.0685L20.5664 20.6895Z" fill="#FF7000"/>
<path d="M4.42969 29.2325L4.7461 29.5489L12.34 22.9042C10.3012 21.0307 5.27948 27.4102 4.42969 29.2325Z" fill="#FF7000"/>
<path d="M20.8833 32.7132H22.1489L18.6684 22.9044H18.9848C20.2824 25.4192 23.0503 29.2703 25.6294 30.4983L25.9459 30.1819C24.9225 27.8857 22.4579 24.5955 20.4753 23.0186C19.6299 22.3463 18.0292 22.4981 17.6268 23.6607C16.9124 25.7254 20.2989 30.5777 20.8833 32.7132Z" fill="#FF7000"/>
<path d="M12.3395 22.9043C11.4553 25.0282 7.12754 30.5286 8.85898 32.3967L13.6052 23.2207L12.3395 22.9043Z" fill="#FF7000"/>
<path d="M13.9219 23.5371L12.3398 33.6623C15.2464 32.8121 13.6353 26.0902 15.8204 24.1699C15.8204 26.195 15.5273 33.0213 17.7189 33.6623C17.7175 31.6256 18.1304 25.6525 16.7608 24.1155C16.2057 23.4925 14.6921 23.6208 13.9219 23.5371Z" fill="#FF7000"/>
<path d="M37.253 27V24.6143H39.589V11.99H37.253V9.60425H44.2113C46.5307 9.60425 48.3034 10.1924 49.5294 11.3687C50.7719 12.545 51.3932 14.3177 51.3932 16.6868V19.9423C51.3932 22.3114 50.7719 24.0841 49.5294 25.2604C48.3034 26.4201 46.5307 27 44.2113 27H37.253ZM42.2977 24.5646H44.2361C45.7437 24.5646 46.862 24.1835 47.591 23.4214C48.32 22.6593 48.6845 21.5245 48.6845 20.0168V16.5874C48.6845 15.0632 48.32 13.9283 47.591 13.1828C46.862 12.4373 45.7437 12.0645 44.2361 12.0645H42.2977V24.5646ZM60.1169 27.3479C58.8744 27.3479 57.7892 27.0911 56.8614 26.5775C55.9337 26.0474 55.2047 25.3101 54.6745 24.3658C54.1609 23.4049 53.9042 22.2949 53.9042 21.0357V20.7375C53.9042 19.4618 54.1609 18.3518 54.6745 17.4075C55.1881 16.4466 55.9005 15.7093 56.8117 15.1957C57.7395 14.6656 58.8081 14.4005 60.0175 14.4005C61.1938 14.4005 62.221 14.6656 63.0991 15.1957C63.9937 15.7093 64.6895 16.43 65.1865 17.3578C65.6836 18.2856 65.9321 19.3707 65.9321 20.6133V21.5825H56.5135C56.5467 22.6593 56.9028 23.5208 57.5821 24.167C58.2779 24.7965 59.1394 25.1113 60.1666 25.1113C61.1275 25.1113 61.8482 24.8959 62.3287 24.4652C62.8257 24.0344 63.2067 23.5374 63.4718 22.9741L65.5842 24.0676C65.3522 24.5315 65.0126 25.0202 64.5653 25.5338C64.1345 26.0474 63.5629 26.4781 62.8505 26.826C62.1381 27.174 61.2269 27.3479 60.1169 27.3479ZM56.5384 19.6192H63.3227C63.2564 18.6915 62.9251 17.9708 62.3287 17.4572C61.7322 16.927 60.9536 16.662 59.9927 16.662C59.0318 16.662 58.2448 16.927 57.6318 17.4572C57.0354 17.9708 56.6709 18.6915 56.5384 19.6192ZM71.4094 27L67.2841 14.7484H69.9929L73.2484 25.1113H73.646L76.9015 14.7484H79.6103L75.485 27H71.4094Z" fill="white"/>
<path d="M88.605 27.3479C86.4181 27.3479 84.6785 26.7515 83.3863 25.5586C82.094 24.3492 81.4479 22.6262 81.4479 20.3896V16.2146C81.4479 13.978 82.094 12.2633 83.3863 11.0705C84.6785 9.86104 86.4181 9.25633 88.605 9.25633C90.7919 9.25633 92.5315 9.86104 93.8237 11.0705C95.116 12.2633 95.7621 13.978 95.7621 16.2146V20.3896C95.7621 22.6262 95.116 24.3492 93.8237 25.5586C92.5315 26.7515 90.7919 27.3479 88.605 27.3479ZM88.605 24.4155C89.831 24.4155 90.7836 24.0593 91.4629 23.3469C92.1421 22.6345 92.4818 21.6819 92.4818 20.489V16.1152C92.4818 14.9224 92.1421 13.9698 91.4629 13.2574C90.7836 12.545 89.831 12.1888 88.605 12.1888C87.3956 12.1888 86.4429 12.545 85.7471 13.2574C85.0679 13.9698 84.7282 14.9224 84.7282 16.1152V20.489C84.7282 21.6819 85.0679 22.6345 85.7471 23.3469C86.4429 24.0593 87.3956 24.4155 88.605 24.4155ZM101.323 27L97.3968 14.6739H100.727L103.585 24.7137H104.032L106.89 14.6739H110.22L106.294 27H101.323ZM117.606 27.3479C116.38 27.3479 115.295 27.0911 114.35 26.5775C113.423 26.0474 112.694 25.3101 112.163 24.3658C111.65 23.4049 111.393 22.2783 111.393 20.986V20.6878C111.393 19.3956 111.65 18.2773 112.163 17.3329C112.677 16.372 113.398 15.6348 114.325 15.1212C115.253 14.591 116.33 14.326 117.556 14.326C118.766 14.326 119.818 14.5993 120.712 15.146C121.607 15.6762 122.303 16.4217 122.8 17.3826C123.297 18.327 123.545 19.4287 123.545 20.6878V21.7564H114.574C114.607 22.6014 114.922 23.2889 115.518 23.8191C116.115 24.3492 116.844 24.6143 117.705 24.6143C118.583 24.6143 119.229 24.4238 119.644 24.0427C120.058 23.6617 120.373 23.2392 120.588 22.7753L123.148 24.1173C122.916 24.548 122.576 25.0202 122.129 25.5338C121.698 26.0308 121.118 26.4616 120.389 26.826C119.66 27.174 118.732 27.3479 117.606 27.3479ZM114.599 19.4204H120.364C120.298 18.708 120.008 18.1364 119.494 17.7057C118.997 17.2749 118.343 17.0596 117.531 17.0596C116.686 17.0596 116.015 17.2749 115.518 17.7057C115.021 18.1364 114.715 18.708 114.599 19.4204ZM126.332 27V14.6739H129.414V16.0655H129.861C130.043 15.5685 130.342 15.204 130.756 14.9721C131.186 14.7401 131.683 14.6242 132.247 14.6242H133.738V17.4075H132.197C131.402 17.4075 130.747 17.6229 130.234 18.0536C129.72 18.4678 129.463 19.1139 129.463 19.992V27H126.332ZM138.223 27V17.2584H135.092V14.6739H138.223V12.3876C138.223 11.5426 138.472 10.8717 138.969 10.3746C139.482 9.86104 140.145 9.60425 140.957 9.60425H144.187V12.1888H142.05C141.586 12.1888 141.354 12.4373 141.354 12.9343V14.6739H144.585V17.2584H141.354V27H138.223ZM146.325 27V9.60425H149.456V27H146.325ZM158.795 27.3479C157.57 27.3479 156.468 27.0994 155.49 26.6024C154.513 26.1054 153.742 25.3847 153.179 24.4403C152.616 23.496 152.334 22.3611 152.334 21.0357V20.6381C152.334 19.3127 152.616 18.1779 153.179 17.2335C153.742 16.2892 154.513 15.5685 155.49 15.0715C156.468 14.5745 157.57 14.326 158.795 14.326C160.021 14.326 161.123 14.5745 162.101 15.0715C163.078 15.5685 163.849 16.2892 164.412 17.2335C164.975 18.1779 165.257 19.3127 165.257 20.6381V21.0357C165.257 22.3611 164.975 23.496 164.412 24.4403C163.849 25.3847 163.078 26.1054 162.101 26.6024C161.123 27.0994 160.021 27.3479 158.795 27.3479ZM158.795 24.5646C159.756 24.5646 160.552 24.2581 161.181 23.6451C161.811 23.0155 162.126 22.1209 162.126 20.9612V20.7127C162.126 19.553 161.811 18.6666 161.181 18.0536C160.568 17.4241 159.773 17.1093 158.795 17.1093C157.835 17.1093 157.039 17.4241 156.41 18.0536C155.78 18.6666 155.465 19.553 155.465 20.7127V20.9612C155.465 22.1209 155.78 23.0155 156.41 23.6451C157.039 24.2581 157.835 24.5646 158.795 24.5646ZM169.093 27L167.353 14.6739H170.459L171.553 24.8877H172L173.591 14.6739H178.611L180.201 24.8877H180.648L181.742 14.6739H184.848L183.109 27H177.915L176.324 16.7862H175.877L174.286 27H169.093Z" fill="#FF7000"/>
</svg>
