<svg width="20" height="21" viewBox="0 0 20 21" fill="none" xmlns="http://www.w3.org/2000/svg">
<path d="M8.39111 11.3047C8.73662 11.7666 9.17743 12.1488 9.68364 12.4254C10.1898 12.7019 10.7496 12.8664 11.325 12.9076C11.9003 12.9488 12.4778 12.8658 13.0183 12.6642C13.5587 12.4626 14.0495 12.1471 14.4573 11.7392L16.8709 9.32556C17.6037 8.56688 18.0091 7.55074 18 6.49601C17.9908 5.44128 17.5677 4.43235 16.8219 3.68651C16.0761 2.94068 15.0671 2.51762 14.0124 2.50845C12.9577 2.49929 11.9415 2.90475 11.1828 3.63751L9.79905 5.01326" stroke="#7B8EC8" stroke-width="1.2" stroke-linecap="round" stroke-linejoin="round"/>
<path d="M11.6092 9.6957C11.2637 9.23379 10.8229 8.85159 10.3167 8.57503C9.81051 8.29847 9.25074 8.134 8.67538 8.0928C8.10003 8.05159 7.52254 8.13461 6.98209 8.33621C6.44163 8.53781 5.95086 8.85329 5.54305 9.26125L3.12945 11.6748C2.39669 12.4335 1.99123 13.4497 2.0004 14.5044C2.00956 15.5591 2.43262 16.5681 3.17846 17.3139C3.92429 18.0597 4.93323 18.4828 5.98796 18.492C7.04269 18.5011 8.05882 18.0957 8.8175 17.3629L10.1933 15.9871" stroke="#7B8EC8" stroke-width="1.2" stroke-linecap="round" stroke-linejoin="round"/>
</svg>
