<svg width="39" height="51" viewBox="0 0 39 51" fill="none" xmlns="http://www.w3.org/2000/svg">
<g filter="url(#filter0_d_280_1676)">
<path d="M14.9983 28.0874L19.6172 30.7541L10.2377 46.9998L7.54563 40.9958L14.9983 28.0874Z" fill="#418ED6"/>
<path d="M14.9983 28.0874L10.3794 25.4207L0.999992 41.6664L7.54563 40.9958L14.9983 28.0874Z" fill="#2B63A6"/>
<path d="M21.5879 28.0874L16.969 30.7541L26.3485 46.9998L29.0406 40.9958L21.5879 28.0874Z" fill="#2B63A6"/>
<path d="M21.5879 28.0874L26.2068 25.4207L35.5862 41.6664L29.0406 40.9958L21.5879 28.0874Z" fill="#418ED6"/>
<circle cx="18.2856" cy="16.9018" r="16.0419" fill="#E3E3E3" stroke="#404040" stroke-width="0.280189"/>
<circle cx="18.2856" cy="16.9016" r="12.4128" fill="#595959"/>
<mask id="mask0_280_1676" style="mask-type:alpha" maskUnits="userSpaceOnUse" x="6" y="5" width="26" height="26">
<circle cx="18.9483" cy="18.2269" r="12.4417" fill="#C28B37"/>
</mask>
<g mask="url(#mask0_280_1676)">
<circle cx="18.2857" cy="16.9017" r="12.4417" fill="url(#paint0_linear_280_1676)"/>
</g>
<path d="M18.3528 8.24658L21.0367 13.6143L26.4044 14.2853L22.7186 18.4184L23.7205 24.3497L18.3528 21.6659L12.9851 24.3497L13.996 18.4184L10.3013 14.2853L15.669 13.6143L18.3528 8.24658Z" fill="url(#paint1_linear_280_1676)"/>
</g>
<defs>
<filter id="filter0_d_280_1676" x="0.780472" y="0.500199" width="38.0986" height="49.7927" filterUnits="userSpaceOnUse" color-interpolation-filters="sRGB">
<feFlood flood-opacity="0" result="BackgroundImageFix"/>
<feColorMatrix in="SourceAlpha" type="matrix" values="0 0 0 0 0 0 0 0 0 0 0 0 0 0 0 0 0 0 127 0" result="hardAlpha"/>
<feOffset dx="1.53669" dy="1.53669"/>
<feGaussianBlur stdDeviation="0.878111"/>
<feComposite in2="hardAlpha" operator="out"/>
<feColorMatrix type="matrix" values="0 0 0 0 0 0 0 0 0 0 0 0 0 0 0 0 0 0 0.3 0"/>
<feBlend mode="normal" in2="BackgroundImageFix" result="effect1_dropShadow_280_1676"/>
<feBlend mode="normal" in="SourceGraphic" in2="effect1_dropShadow_280_1676" result="shape"/>
</filter>
<linearGradient id="paint0_linear_280_1676" x1="18.2857" y1="4.45996" x2="18.2857" y2="29.3434" gradientUnits="userSpaceOnUse">
<stop stop-color="#9CA1A3"/>
<stop offset="1" stop-color="#9CA1A3" stop-opacity="0"/>
</linearGradient>
<linearGradient id="paint1_linear_280_1676" x1="18.3528" y1="8.24658" x2="18.3528" y2="24.3497" gradientUnits="userSpaceOnUse">
<stop stop-color="#F1F5F5"/>
<stop offset="0.0001" stop-color="white"/>
<stop offset="1" stop-color="#F1F5F5"/>
</linearGradient>
</defs>
</svg>
