<svg width="20" height="21" viewBox="0 0 20 21" fill="none" xmlns="http://www.w3.org/2000/svg">
<path d="M14.1667 12.1667C14.3877 12.1667 14.5996 12.0789 14.7559 11.9226C14.9122 11.7663 15 11.5543 15 11.3333C15 11.1123 14.9122 10.9004 14.7559 10.7441C14.5996 10.5878 14.3877 10.5 14.1667 10.5C13.9457 10.5 13.7337 10.5878 13.5774 10.7441C13.4211 10.9004 13.3333 11.1123 13.3333 11.3333C13.3333 11.5543 13.4211 11.7663 13.5774 11.9226C13.7337 12.0789 13.9457 12.1667 14.1667 12.1667ZM14.1667 15.5C14.3877 15.5 14.5996 15.4122 14.7559 15.2559C14.9122 15.0996 15 14.8877 15 14.6667C15 14.4457 14.9122 14.2337 14.7559 14.0774C14.5996 13.9211 14.3877 13.8333 14.1667 13.8333C13.9457 13.8333 13.7337 13.9211 13.5774 14.0774C13.4211 14.2337 13.3333 14.4457 13.3333 14.6667C13.3333 14.8877 13.4211 15.0996 13.5774 15.2559C13.7337 15.4122 13.9457 15.5 14.1667 15.5ZM10.8333 11.3333C10.8333 11.5543 10.7455 11.7663 10.5893 11.9226C10.433 12.0789 10.221 12.1667 10 12.1667C9.77899 12.1667 9.56702 12.0789 9.41074 11.9226C9.25446 11.7663 9.16667 11.5543 9.16667 11.3333C9.16667 11.1123 9.25446 10.9004 9.41074 10.7441C9.56702 10.5878 9.77899 10.5 10 10.5C10.221 10.5 10.433 10.5878 10.5893 10.7441C10.7455 10.9004 10.8333 11.1123 10.8333 11.3333ZM10.8333 14.6667C10.8333 14.8877 10.7455 15.0996 10.5893 15.2559C10.433 15.4122 10.221 15.5 10 15.5C9.77899 15.5 9.56702 15.4122 9.41074 15.2559C9.25446 15.0996 9.16667 14.8877 9.16667 14.6667C9.16667 14.4457 9.25446 14.2337 9.41074 14.0774C9.56702 13.9211 9.77899 13.8333 10 13.8333C10.221 13.8333 10.433 13.9211 10.5893 14.0774C10.7455 14.2337 10.8333 14.4457 10.8333 14.6667ZM5.83333 12.1667C6.05435 12.1667 6.26631 12.0789 6.42259 11.9226C6.57887 11.7663 6.66667 11.5543 6.66667 11.3333C6.66667 11.1123 6.57887 10.9004 6.42259 10.7441C6.26631 10.5878 6.05435 10.5 5.83333 10.5C5.61232 10.5 5.40036 10.5878 5.24408 10.7441C5.0878 10.9004 5 11.1123 5 11.3333C5 11.5543 5.0878 11.7663 5.24408 11.9226C5.40036 12.0789 5.61232 12.1667 5.83333 12.1667ZM5.83333 15.5C6.05435 15.5 6.26631 15.4122 6.42259 15.2559C6.57887 15.0996 6.66667 14.8877 6.66667 14.6667C6.66667 14.4457 6.57887 14.2337 6.42259 14.0774C6.26631 13.9211 6.05435 13.8333 5.83333 13.8333C5.61232 13.8333 5.40036 13.9211 5.24408 14.0774C5.0878 14.2337 5 14.4457 5 14.6667C5 14.8877 5.0878 15.0996 5.24408 15.2559C5.40036 15.4122 5.61232 15.5 5.83333 15.5Z" fill="#7B8EC8"/>
<path fill-rule="evenodd" clip-rule="evenodd" d="M5.83341 1.9585C5.99918 1.9585 6.15815 2.02434 6.27536 2.14155C6.39257 2.25876 6.45841 2.41774 6.45841 2.5835V3.21933C7.01008 3.2085 7.61758 3.2085 8.28591 3.2085H11.7134C12.3826 3.2085 12.9901 3.2085 13.5417 3.21933V2.5835C13.5417 2.41774 13.6076 2.25876 13.7248 2.14155C13.842 2.02434 14.001 1.9585 14.1667 1.9585C14.3325 1.9585 14.4915 2.02434 14.6087 2.14155C14.7259 2.25876 14.7917 2.41774 14.7917 2.5835V3.27266C15.0084 3.28933 15.2134 3.31016 15.4076 3.336C16.3842 3.46766 17.1751 3.74433 17.7992 4.36766C18.4226 4.99183 18.6992 5.78266 18.8309 6.75933C18.9584 7.70933 18.9584 8.92183 18.9584 10.4535V12.2135C18.9584 13.7452 18.9584 14.9585 18.8309 15.9077C18.6992 16.8843 18.4226 17.6752 17.7992 18.2993C17.1751 18.9227 16.3842 19.1993 15.4076 19.331C14.4576 19.4585 13.2451 19.4585 11.7134 19.4585H8.28675C6.75508 19.4585 5.54175 19.4585 4.59258 19.331C3.61591 19.1993 2.82508 18.9227 2.20091 18.2993C1.57758 17.6752 1.30091 16.8843 1.16925 15.9077C1.04175 14.9577 1.04175 13.7452 1.04175 12.2135V10.4535C1.04175 8.92183 1.04175 7.7085 1.16925 6.75933C1.30091 5.78266 1.57758 4.99183 2.20091 4.36766C2.82508 3.74433 3.61591 3.46766 4.59258 3.336C4.78675 3.31016 4.99258 3.28933 5.20841 3.27266V2.5835C5.20841 2.41774 5.27426 2.25876 5.39147 2.14155C5.50868 2.02434 5.66765 1.9585 5.83341 1.9585ZM4.75841 4.57516C3.92091 4.68766 3.43758 4.89933 3.08508 5.25183C2.73258 5.60433 2.52091 6.08766 2.40841 6.926C2.38925 7.06766 2.37341 7.21766 2.36008 7.37516H17.6401C17.6267 7.21683 17.6109 7.06766 17.5917 6.92516C17.4792 6.08766 17.2676 5.60433 16.9151 5.25183C16.5626 4.89933 16.0792 4.68766 15.2409 4.57516C14.3851 4.46016 13.2559 4.4585 11.6667 4.4585H8.33341C6.74425 4.4585 5.61591 4.46016 4.75841 4.57516ZM2.29175 10.5002C2.29175 9.7885 2.29175 9.16933 2.30258 8.62516H17.6976C17.7084 9.16933 17.7084 9.7885 17.7084 10.5002V12.1668C17.7084 13.756 17.7067 14.8852 17.5917 15.7418C17.4792 16.5793 17.2676 17.0627 16.9151 17.4152C16.5626 17.7677 16.0792 17.9793 15.2409 18.0918C14.3851 18.2068 13.2559 18.2085 11.6667 18.2085H8.33341C6.74425 18.2085 5.61591 18.2068 4.75841 18.0918C3.92091 17.9793 3.43758 17.7677 3.08508 17.4152C2.73258 17.0627 2.52091 16.5793 2.40841 15.741C2.29341 14.8852 2.29175 13.756 2.29175 12.1668V10.5002Z" fill="#7B8EC8"/>
</svg>
