<svg width="16" height="14" viewBox="0 0 16 14" fill="none" xmlns="http://www.w3.org/2000/svg">
<path fill-rule="evenodd" clip-rule="evenodd" d="M7.87747 2.47998C5.88287 2.47998 4.63657 3.48449 4.1377 5.49351C4.88571 4.489 5.7583 4.11238 6.75545 4.36336C7.32437 4.50653 7.73121 4.92235 8.18113 5.38272C8.91449 6.13239 9.76333 6.99998 11.6169 6.99998C13.6113 6.99998 14.8578 5.99547 15.3564 3.98675C14.6087 4.99126 13.7361 5.36787 12.739 5.1166C12.1697 4.97344 11.7629 4.55761 11.313 4.09753C10.5796 3.34727 9.73109 2.47998 7.87747 2.47998ZM4.1377 6.99998C2.14339 6.99998 0.896801 8.00449 0.398224 10.0135C1.14624 9.009 2.01882 8.63238 3.01568 8.88336C3.5849 9.02653 3.99173 9.44235 4.44165 9.90272C5.17501 10.6524 6.02356 11.52 7.87747 11.52C9.87178 11.52 11.1184 10.5158 11.6169 8.50675C10.8689 9.51126 9.99635 9.88787 8.99919 9.63689C8.43027 9.49344 8.02344 9.07761 7.57352 8.61753C6.84016 7.86786 5.99132 6.99998 4.1377 6.99998Z" fill="#38BDF8"/>
</svg>
