<svg width="700" height="218" viewBox="0 0 722 218" fill="none" xmlns="http://www.w3.org/2000/svg">
<g clip-path="url(#clip0_280_1025)">
<rect x="1" y="1" width="720" height="216" rx="5" fill="#0F1117"/>
<rect width="721" height="42" transform="translate(0 1)" fill="#151821"/>
<path d="M35.7 21.0925C36.4275 20.59 36.9375 19.765 36.9375 19C36.9375 17.305 35.625 16 33.9375 16H29.25V26.5H34.53C36.0975 26.5 37.3125 25.225 37.3125 23.6575C37.3125 22.5175 36.6675 21.5425 35.7 21.0925ZM31.5 17.875H33.75C34.3725 17.875 34.875 18.3775 34.875 19C34.875 19.6225 34.3725 20.125 33.75 20.125H31.5V17.875ZM34.125 24.625H31.5V22.375H34.125C34.7475 22.375 35.25 22.8775 35.25 23.5C35.25 24.1225 34.7475 24.625 34.125 24.625Z" fill="#858EAD"/>
<path d="M59.5 16V18.25H61.1575L58.5925 24.25H56.5V26.5H62.5V24.25H60.8425L63.4075 18.25H65.5V16H59.5Z" fill="#858EAD"/>
<path d="M93.3364 26.5H91.1392V21.9297H86.8545V26.5H84.6572V15.8359H86.8545V20.1572H91.1392V15.8359H93.3364V26.5Z" fill="#858EAD"/>
<path d="M120.561 26.5H118.516V22.9375H115.486V26.5H113.43V17.9688H115.486V21.3555H118.516V17.9688H120.561V26.5Z" fill="#858EAD"/>
<path d="M140.5 25.75H142.75L144.25 22.75V18.25H139.75V22.75H142L140.5 25.75ZM146.5 25.75H148.75L150.25 22.75V18.25H145.75V22.75H148L146.5 25.75Z" fill="#858EAD"/>
<path d="M166.925 22C166.925 20.7175 167.967 19.675 169.25 19.675H172.25V18.25H169.25C167.18 18.25 165.5 19.93 165.5 22C165.5 24.07 167.18 25.75 169.25 25.75H172.25V24.325H169.25C167.967 24.325 166.925 23.2825 166.925 22ZM170 22.75H176V21.25H170V22.75ZM176.75 18.25H173.75V19.675H176.75C178.033 19.675 179.075 20.7175 179.075 22C179.075 23.2825 178.033 24.325 176.75 24.325H173.75V25.75H176.75C178.82 25.75 180.5 24.07 180.5 22C180.5 19.93 178.82 18.25 176.75 18.25Z" fill="#858EAD"/>
<path d="M207.75 27.25V16.75C207.75 15.925 207.075 15.25 206.25 15.25H195.75C194.925 15.25 194.25 15.925 194.25 16.75V27.25C194.25 28.075 194.925 28.75 195.75 28.75H206.25C207.075 28.75 207.75 28.075 207.75 27.25ZM198.375 23.125L200.25 25.3825L202.875 22L206.25 26.5H195.75L198.375 23.125Z" fill="#858EAD"/>
<path d="M223.188 20.875C222.565 20.875 222.062 21.3775 222.062 22C222.062 22.6225 222.565 23.125 223.188 23.125C223.81 23.125 224.312 22.6225 224.312 22C224.312 21.3775 223.81 20.875 223.188 20.875ZM223.188 16.375C222.565 16.375 222.062 16.8775 222.062 17.5C222.062 18.1225 222.565 18.625 223.188 18.625C223.81 18.625 224.312 18.1225 224.312 17.5C224.312 16.8775 223.81 16.375 223.188 16.375ZM223.188 25.375C222.565 25.375 222.062 25.885 222.062 26.5C222.062 27.115 222.572 27.625 223.188 27.625C223.803 27.625 224.312 27.115 224.312 26.5C224.312 25.885 223.81 25.375 223.188 25.375ZM225.438 27.25H235.938V25.75H225.438V27.25ZM225.438 22.75H235.938V21.25H225.438V22.75ZM225.438 16.75V18.25H235.938V16.75H225.438Z" fill="#858EAD"/>
<path d="M250.25 25.75H251.75V26.125H251V26.875H251.75V27.25H250.25V28H252.5V25H250.25V25.75ZM251 19H251.75V16H250.25V16.75H251V19ZM250.25 21.25H251.6L250.25 22.825V23.5H252.5V22.75H251.15L252.5 21.175V20.5H250.25V21.25ZM254 16.75V18.25H264.5V16.75H254ZM254 27.25H264.5V25.75H254V27.25ZM254 22.75H264.5V21.25H254V22.75Z" fill="#858EAD"/>
</g>
<rect x="0.5" y="0.5" width="721" height="217" rx="5.5" stroke="#212734"/>
<defs>
<clipPath id="clip0_280_1025">
<rect x="1" y="1" width="720" height="216" rx="5" fill="white"/>
</clipPath>
</defs>
</svg>
