<svg width="13" height="13" viewBox="0 0 13 13" fill="none" xmlns="http://www.w3.org/2000/svg">
<path d="M4.99274 7.36133L5.76258 10.4265" stroke="black" stroke-width="0.273684" stroke-miterlimit="10"/>
<path d="M8.03352 8.22258L4.99274 7.36133" stroke="black" stroke-width="0.273684" stroke-miterlimit="10"/>
<path d="M5.76248 10.4266L8.03342 8.22266" stroke="black" stroke-width="0.273684" stroke-miterlimit="10"/>
<path d="M5.7624 10.4262L2.72162 9.56494" stroke="black" stroke-width="0.273684" stroke-miterlimit="10"/>
<path d="M2.72162 9.56494L3.49146 12.6321L5.7624 10.4262" stroke="black" stroke-width="0.273684" stroke-miterlimit="10"/>
<path d="M2.72162 9.56523L4.99256 7.36133" stroke="black" stroke-width="0.273684" stroke-miterlimit="10"/>
<path d="M4.99274 7.36121L7.26571 5.15527" stroke="black" stroke-width="0.273684" stroke-miterlimit="10"/>
<path d="M7.26587 5.15557L9.53681 2.95166" stroke="black" stroke-width="0.273684" stroke-miterlimit="10"/>
<path d="M6.49615 2.09033L7.266 5.15549" stroke="black" stroke-width="0.273684" stroke-miterlimit="10"/>
<path d="M7.26584 5.15561L4.22302 4.29639" stroke="black" stroke-width="0.273684" stroke-miterlimit="10"/>
<path d="M4.22302 4.29639L4.99287 7.36154" stroke="black" stroke-width="0.273684" stroke-miterlimit="10"/>
<path d="M4.99266 7.36125L1.95187 6.5" stroke="black" stroke-width="0.273684" stroke-miterlimit="10"/>
<path d="M1.95187 6.5L2.72172 9.56516" stroke="black" stroke-width="0.273684" stroke-miterlimit="10"/>
<path d="M1.18216 3.43506L1.952 6.50021" stroke="black" stroke-width="0.273684" stroke-miterlimit="10"/>
<path d="M4.22294 4.29631L1.18216 3.43506" stroke="black" stroke-width="0.273684" stroke-miterlimit="10"/>
<path d="M1.95187 6.50029L4.22281 4.29639" stroke="black" stroke-width="0.273684" stroke-miterlimit="10"/>
<path d="M4.22302 4.29424L6.49599 2.09033" stroke="black" stroke-width="0.273684" stroke-miterlimit="10"/>
<path d="M6.49609 2.09025L3.45328 1.229" stroke="black" stroke-width="0.273684" stroke-miterlimit="10"/>
<path d="M3.45328 1.229L4.22312 4.29416" stroke="black" stroke-width="0.273684" stroke-miterlimit="10"/>
<path d="M1.18226 3.43486L0.412415 0.367676L3.4532 1.22893" stroke="black" stroke-width="0.273684" stroke-miterlimit="10"/>
<path d="M1.18216 3.43494L3.4531 1.229" stroke="black" stroke-width="0.273684" stroke-miterlimit="10"/>
<path d="M10.3069 6.01682L12.5778 3.81291L9.53702 2.95166" stroke="black" stroke-width="0.273684" stroke-miterlimit="10"/>
<path d="M9.53702 2.95166L10.3069 6.01682" stroke="black" stroke-width="0.273684" stroke-miterlimit="10"/>
<path d="M10.3067 6.01652L7.26587 5.15527" stroke="black" stroke-width="0.273684" stroke-miterlimit="10"/>
<path d="M7.26587 5.15527L8.03368 8.22246" stroke="black" stroke-width="0.273684" stroke-miterlimit="10"/>
<path d="M8.0336 8.22254L10.3066 6.0166" stroke="black" stroke-width="0.273684" stroke-miterlimit="10"/>
<path d="M9.53694 2.95158L6.49615 2.09033" stroke="black" stroke-width="0.273684" stroke-miterlimit="10"/>
</svg>
